PathFileType	4	(X/Y/Z)	T1_P2_Vision_NoMovement_3_0-731.trc
DataRate	CameraRate	NumFrames	NumMarkers	Units	OrigDataRate	OrigDataStartFrame	OrigNumFrames
60	60	4	27	m	60	182	731
Frame#	Time	RHip			RKnee			RAnkle			RBigToe			RSmallToe			RHeel			LHip			LKnee			LAnkle			LBigToe			LSmallToe			LHeel			Neck			Head			Nose			RShoulder			RElbow			RWrist			RThumb			RIndex			RPinky			LShoulder			LElbow			LWrist			LThumb			LIndex			LPinky		
		X1	Y1	Z1	X2	Y2	Z2	X3	Y3	Z3	X4	Y4	Z4	X5	Y5	Z5	X6	Y6	Z6	X7	Y7	Z7	X8	Y8	Z8	X9	Y9	Z9	X10	Y10	Z10	X11	Y11	Z11	X12	Y12	Z12	X13	Y13	Z13	X14	Y14	Z14	X15	Y15	Z15	X16	Y16	Z16	X17	Y17	Z17	X18	Y18	Z18	X19	Y19	Z19	X20	Y20	Z20	X21	Y21	Z21	X22	Y22	Z22	X23	Y23	Z23	X24	Y24	Z24	X25	Y25	Z25	X26	Y26	Z26	X27	Y27	Z27
183	3.05	457.18882000650325	3759.1041363124455	667.0269449787185	857.0453682235946	3777.5343017960054	658.0414826053857	1211.636056967725	3738.0575768476183	680.4196017689517	1290.464466710757	3654.102936423262	656.8834674810557	1289.2415517152062	3711.8620990996833	609.3172015288231	1271.7658595400678	3786.498111220055	743.989204941621	462.500502677672	3638.9545564691985	854.0807208944018	844.2113512181384	3652.688457310654	857.0406338095379	1228.941228776474	3696.636825656711	860.5130993978548	1299.9784654237067	3550.7377815647637	806.1594022266016	1265.1526050992727	3538.319382467398	839.4907485681238	1258.0427272751626	3726.0798679797863	863.8083994468685	-137.1204841530567	3675.0289519798266	773.1185664722132	-402.3269447602118	3647.093006415958	755.1138465023378	-267.2558254018197	3602.4917232780867	743.9970459380826	-52.12618853467061	3759.5120307889947	642.1930452887376	192.8950316962281	3790.000071624603	567.9858698041742	339.54816817876576	3582.764742089441	639.7181408193926	427.879042161907	3607.931605456666	718.8140755338113	434.3576517011573	3569.922993751966	727.8401400910731	448.192973993779	3526.90751775431	705.8412303082386	-42.291761144823234	3641.6396712555393	943.8146659317979	209.6047247053898	3519.6367080062864	913.8994533312234	354.89000390583595	3491.41406232026	731.8404417820921	404.4951082303108	3551.0420449114276	641.5263254888301	435.9403763509927	3590.86817401626	653.5714871556675	458.99830157185374	3523.1574649683007	707.8214370015947
184	3.066666666666667	457.07380552877487	3759.1279251536403	667.0128280670739	858.8223778621275	3787.518603060841	660.5029956514301	1217.389499861309	3746.918106511157	686.7029313172573	1293.039653894635	3656.9746409128265	659.4312261593295	1290.5273410889668	3713.5722561344965	610.3928177960935	1274.0930001613954	3788.2644533567973	744.4268714992747	463.3975251580172	3645.968019417479	856.2500832027928	843.1592773023157	3654.4545962661177	856.4188541643132	1229.0350114006394	3697.111873386741	860.6091261718655	1298.5197831496696	3548.603241300285	805.259970541358	1265.513112129055	3540.3151127814617	840.4782971581486	1257.2895620551487	3727.4027541196	864.5999783525652	-139.05465192626323	3676.339886925246	773.9543191629278	-402.38818928842244	3647.924949245941	753.8445571925831	-267.3511178207697	3607.5085328646064	745.571631554296	-53.601261032429086	3758.829995310229	641.9148914054474	192.50046856277405	3791.443396630946	567.76167789865	339.4046447551968	3581.6376308511008	639.4081945550629	427.80006819620667	3607.626771184813	718.3328957011647	433.63972945560965	3568.616882562148	727.5968845379896	448.70572759517546	3526.9706331508924	705.0146282048529	-42.57225857452351	3635.789669730362	938.3456448905449	210.1289048352195	3519.4765265515966	914.0882309238999	354.91375938109815	3491.4451933446485	731.6981772094276	405.39496342440583	3552.799760860853	641.1478643954903	435.7408369986723	3589.816884561666	652.9582665620708	460.3294654175135	3523.3054305323844	708.0383760835355
185	3.083333333333333	457.13638626141073	3759.1739127491046	667.0441268721127	859.737745266353	3793.771128019475	660.9655506432258	1220.0517578641206	3750.8990833993284	689.5176612852188	1295.6890248446377	3659.118249668906	661.4295004217083	1292.326896649837	3714.0955851626572	611.5224826911192	1276.596913876082	3790.1595576169843	744.90201020452	463.37686124824546	3651.356233677264	857.9456576856728	842.6027105186344	3657.1435006136708	856.4202483014741	1229.0634703067224	3697.074404553018	860.5699063996678	1297.4592449876704	3548.090188674685	804.9155856480517	1265.1914128359908	3541.531644226352	841.7866228208014	1256.77526945672	3728.678658231898	865.3524873783915	-141.03242152549115	3677.180606773085	774.7344925737423	-402.40155783306847	3648.26355993255	752.7665356720836	-267.35660386776993	3609.580741880568	745.9012186647176	-54.25325417743471	3758.8040559929086	642.0794202793741	191.56067277900766	3791.757274792731	567.3935783485382	339.01417186443507	3578.35871706682	638.5107180774385	427.5260446985175	3605.7789323218985	716.4734310800075	432.2878873438406	3566.750102854379	727.2939862080922	448.5907895313473	3527.077194125713	704.5268306821589	-42.77739612815928	3631.3533655343244	934.193910030989	210.151825454931	3519.410457801837	914.7402409117149	355.00588573639675	3491.4468615157884	731.7596331261309	405.78189569313724	3554.0376861927566	640.2309212036545	435.1513208382347	3586.9490505874182	650.9393329923961	461.0249096245099	3523.3854421990522	708.1914363050836
186	3.1	457.19215466101264	3759.1796930963983	667.0572776832627	860.2812217383276	3792.5481784411977	658.7278357686309	1218.9289729496538	3747.462404200471	686.6704163501078	1297.328444839574	3659.7473533900693	662.2413453424801	1293.4918180973843	3711.6351845679856	611.752759480234	1279.5072146222792	3792.311227181487	745.4353096467436	463.20391773291715	3653.201659213117	858.5274837020413	843.4301730752417	3659.023654493295	857.4234637681118	1229.13994437997	3697.0988118655737	860.5748886887769	1296.5486785711614	3548.0933904484946	804.781341528894	1264.0640795451866	3540.722040914276	842.7462071371585	1257.6011736812281	3729.012749427163	865.4298003144922	-142.46818195741935	3676.96419649376	774.7396163692948	-402.4215107299946	3648.205028348161	752.3083272936826	-267.28934249247743	3608.226667734736	744.3285455186841	-53.547537336708885	3758.930787279927	642.2702032792613	191.10937649415453	3790.8649712275164	566.866194471789	338.5608784992746	3574.4987758842644	637.4564021838048	427.5181285825385	3605.293849189164	715.1986317661228	431.1692177194275	3565.883778108913	727.2322912651102	447.54644979956856	3527.109337243798	704.9503819391804	-42.849268754388376	3629.6883092807348	932.6184033335128	210.00844199969038	3519.0778081253256	915.4970942820976	355.02950193365314	3491.4586261452987	731.8458493754172	405.7726260655248	3554.405235086384	639.7469059599483	434.59857804277215	3583.8345584784292	649.3104413687307	460.835494143113	3523.232659720417	708.1421236632935
